<svg width="39" height="39" viewBox="0 0 39 39" fill="none" xmlns="http://www.w3.org/2000/svg">
<path d="M19.4443 0C30.1827 0.000239144 38.8877 8.70592 38.8877 19.4443C38.8875 30.1826 30.1826 38.8875 19.4443 38.8877C8.70592 38.8877 0.000239158 30.1827 0 19.4443C0 8.70577 8.70577 0 19.4443 0ZM19.0527 6.81445C18.6621 6.73701 18.2994 7.60819 17.5742 9.34863L14.3965 16.9756C13.3818 19.4107 12.8742 20.6283 13.4512 21.4941C14.0284 22.3601 15.348 22.3604 17.9863 22.3604H18.4717C18.93 22.3604 19.1594 22.3605 19.3018 22.5029C19.4439 22.6453 19.4443 22.8749 19.4443 23.333V29.165C19.4443 31.0512 19.4442 31.9941 19.835 32.0723C20.2257 32.1501 20.5881 31.2799 21.3135 29.5391L24.4912 21.9121C25.506 19.4767 26.0138 18.2585 25.4365 17.3926C24.8591 16.527 23.5394 16.5273 20.9014 16.5273H20.416C19.9578 16.5273 19.7283 16.5271 19.5859 16.3848C19.4437 16.2424 19.4443 16.0128 19.4443 15.5547V9.72266C19.4443 7.8365 19.4435 6.89261 19.0527 6.81445Z" fill="#0056EB"/>
</svg>
